<?xml version="1.0" encoding="UTF-8"?>
<svg width="25px" height="13px" viewBox="0 0 25 13" version="1.1" xmlns="http://www.w3.org/2000/svg" xmlns:xlink="http://www.w3.org/1999/xlink">
    <title>尖角</title>
    <g id="恋爱交友" stroke="none" stroke-width="1" fill="none" fill-rule="evenodd" fill-opacity="0.502048733">
        <g id="群聊-长按2备份" transform="translate(-337.000000, -480.000000)" fill="#000000">
            <g id="编组-7" transform="translate(221.000000, 419.000000)">
                <g id="编组" transform="translate(116.000000, 61.000000)">
                    <g id="形状结合-2" transform="translate(4.000000, 0.000000)">
                        <path d="M10.5,0 C11.4664983,0 12.25,0.774531073 12.25,1.72996357 C12.25,1.73063641 12.2499996,1.73130916 12.2499988,1.73198182 L12.272057,1.73122544 C12.2574351,1.93566406 12.25,2.14206476 12.25,2.35018214 C12.25,7.12734463 16.1675084,11 21,11 L0,11 L0.262664981,10.9961772 C4.97365137,10.8588772 8.75,7.04048713 8.75,2.35018214 C8.75,2.14206476 8.7425649,1.93566406 8.72794297,1.73122544 L8.75,1.731 C8.75,0.822302698 9.45711027,0.0779053609 10.3564728,0.00573477934 Z" id="形状结合" transform="translate(10.500000, 5.500000) scale(1, -1) translate(-10.500000, -5.500000) "></path>
                    </g>
                </g>
            </g>
        </g>
    </g>
</svg>