<svg xmlns="http://www.w3.org/2000/svg" xmlns:xlink="http://www.w3.org/1999/xlink" width="40" height="40" viewBox="0 0 40 40"><title>ic_camera</title><defs><linearGradient id="a" x1="0%" x2="82.483%" y1="11.719%" y2="50%"><stop offset="0%" stop-color="#2EFEFD"/><stop offset="100%" stop-color="#2ECEFE"/></linearGradient><path id="b" d="M23.685 6c1.01 0 1.934.57 2.385 1.474L27.333 10H32a4 4 0 0 1 4 4v16a4 4 0 0 1-4 4H8a4 4 0 0 1-4-4V14a4 4 0 0 1 4-4h4.666l1.264-2.526A2.667 2.667 0 0 1 16.315 6h7.37zM20 14a8 8 0 1 0 0 16 8 8 0 0 0 0-16zm0 2.667a5.333 5.333 0 1 1 0 10.666 5.333 5.333 0 0 1 0-10.666z"/></defs><g fill="none" fill-rule="evenodd"><use fill="url(#a)" xlink:href="#b"/><use fill="#FFF" fill-opacity=".2" xlink:href="#b"/></g></svg>